<svg xmlns="http://www.w3.org/2000/svg" viewBox="0 0 249.77 266.72"><defs><style>.cls-1{fill:#414042;}</style></defs><title>fingerprint_1</title><g id="Calque_2" data-name="Calque 2"><g id="Calque_2-2" data-name="Calque 2"><path class="cls-1" d="M52.28,236A5.39,5.39,0,0,1,50,225.68c33.12-15.24,54.5-54.79,54.46-100.75a20.43,20.43,0,0,1,20.39-20.42h0a5.39,5.39,0,0,1,0,10.77,9.64,9.64,0,0,0-9.62,9.64c0,50.16-23.8,93.55-60.73,110.54A5.38,5.38,0,0,1,52.28,236Z"/><path class="cls-1" d="M79.7,255.4a5.39,5.39,0,0,1-3.06-9.82c35.74-24.66,57.92-70.86,57.88-120.58a5.39,5.39,0,0,1,5.38-5.39h0a5.39,5.39,0,0,1,5.39,5.38,171.84,171.84,0,0,1-17.14,75.63c-11,22.29-26.66,40.9-45.4,53.83A5.36,5.36,0,0,1,79.7,255.4Z"/><path class="cls-1" d="M194.78,236a5.36,5.36,0,0,1-2.25-.49A91.15,91.15,0,0,1,162,212.21a5.39,5.39,0,0,1,8.12-7.08,80.46,80.46,0,0,0,27,20.55A5.39,5.39,0,0,1,194.78,236Z"/><path class="cls-1" d="M167.36,255.4a5.36,5.36,0,0,1-3.05-1A127.87,127.87,0,0,1,146.94,240a5.39,5.39,0,1,1,7.59-7.65,117,117,0,0,0,15.9,13.23,5.39,5.39,0,0,1-3.06,9.82Z"/><path class="cls-1" d="M20.34,180.07a5.39,5.39,0,0,1,0-10.77c21,0,31.93-22.22,31.91-44.15V125A72.18,72.18,0,0,1,73.52,73.53a5.39,5.39,0,0,1,7.62,7.62A61.49,61.49,0,0,0,63,125v.19c0,31.8-17.92,54.9-42.67,54.92Z"/><path class="cls-1" d="M95.82,69.62a5.39,5.39,0,0,1-2.33-10.24,72,72,0,0,1,31.35-7.12h.06A72.54,72.54,0,0,1,144,54.8a5.39,5.39,0,1,1-2.84,10.39,62,62,0,0,0-43,3.89A5.38,5.38,0,0,1,95.82,69.62Z"/><path class="cls-1" d="M160.14,73a5.36,5.36,0,0,1-2.83-.81l-.28-.17a5.39,5.39,0,0,1,5.62-9.19l.34.21a5.39,5.39,0,0,1-2.84,10Z"/><path class="cls-1" d="M229.42,180.07h0c-24.75,0-42.7-23.12-42.67-54.93V125q0-.16,0-.33a62,62,0,0,0-8.48-30.93,5.39,5.39,0,0,1,9.29-5.45,72.81,72.81,0,0,1,10,36.73c0,.12,0,.23,0,.35,0,21.87,11,44,31.91,44a5.39,5.39,0,0,1,0,10.77Z"/><path class="cls-1" d="M229.45,148.64h0c-5,0-16.59-2.3-16.57-23.47V125a88.11,88.11,0,0,0-88-88.09h-.07A88.1,88.1,0,0,0,36.89,125v.19c0,21.17-11.58,23.46-16.57,23.47h0a5.39,5.39,0,0,1,0-10.77c4.81,0,5.82-6.91,5.81-12.69V125a98.89,98.89,0,0,1,98.69-98.86h.08A98.88,98.88,0,0,1,223.65,125v.21c0,5.79,1,12.69,5.81,12.7a5.39,5.39,0,0,1,0,10.77Z"/><path class="cls-1" d="M5.39,130.39A5.39,5.39,0,0,1,0,125,124.9,124.9,0,0,1,124.79,0h.1c68.76,0,124.74,56,124.88,124.84,0,.05,0,.11,0,.16A5.39,5.39,0,0,1,239,125c0-63-51.23-114.24-114.11-114.24h-.09A114.26,114.26,0,0,0,10.77,125a5.39,5.39,0,0,1-5.38,5.39Z"/><path class="cls-1" d="M34.81,209.56A5.39,5.39,0,0,1,33.38,199c26.52-7.32,45-37.77,45-74a5.39,5.39,0,0,1,5.38-5.39h0a5.39,5.39,0,0,1,5.39,5.38c0,20-4.91,38.68-14.25,53.89-9.61,15.65-23,26.21-38.64,30.53A5.42,5.42,0,0,1,34.81,209.56Z"/><path class="cls-1" d="M87.48,113.14a5.39,5.39,0,0,1-4.89-7.63,46.41,46.41,0,0,1,18.82-20.78,5.39,5.39,0,0,1,5.44,9.3,35.69,35.69,0,0,0-14.48,16A5.39,5.39,0,0,1,87.48,113.14Z"/><path class="cls-1" d="M107.79,266.72a5.39,5.39,0,0,1-3-9.87c34.48-22.93,55.87-73.47,55.83-131.91v0a35.86,35.86,0,0,0-16.39-30,35.44,35.44,0,0,0-19.35-5.73h0a5.39,5.39,0,0,1,0-10.77h0A46.59,46.59,0,0,1,171.4,125v.05c0,61.95-23.22,115.88-60.63,140.76A5.35,5.35,0,0,1,107.79,266.72Z"/><path class="cls-1" d="M215,209.56a5.39,5.39,0,0,1-1.44-.2c-15.09-4.17-28.1-14.17-37.63-28.93a5.39,5.39,0,1,1,9-5.84c8.07,12.5,18.95,20.94,31.45,24.39A5.39,5.39,0,0,1,215,209.56Z"/></g></g></svg>